<svg width="64" height="64" viewBox="0 0 64 64" fill="none" xmlns="http://www.w3.org/2000/svg">
<path opacity="0.2" d="M32 64C49.6731 64 64 49.6731 64 32C64 14.3269 49.6731 0 32 0C14.3269 0 0 14.3269 0 32C0 49.6731 14.3269 64 32 64Z" fill="#B166EE"/>
<path fill-rule="evenodd" clip-rule="evenodd" d="M37.5761 38.989C38.3564 38.989 38.989 38.3564 38.989 37.5761C38.989 36.7957 38.3564 36.1631 37.5761 36.1631C36.7957 36.1631 36.1631 36.7957 36.1631 37.5761C36.1631 38.3564 36.7957 38.989 37.5761 38.989Z" fill="#A566EB"/>
<path fill-rule="evenodd" clip-rule="evenodd" d="M26.4239 38.989C27.2043 38.989 27.8368 38.3564 27.8368 37.5761C27.8368 36.7957 27.2043 36.1631 26.4239 36.1631C25.6436 36.1631 25.011 36.7957 25.011 37.5761C25.011 38.3564 25.6436 38.989 26.4239 38.989Z" fill="#A566EB"/>
<path fill-rule="evenodd" clip-rule="evenodd" d="M12.3077 32C12.3077 21.1298 21.1298 12.3077 32 12.3077C42.8702 12.3077 51.6923 21.1298 51.6923 32C51.6923 42.8702 42.8702 51.6923 32 51.6923C21.1298 51.6923 12.3077 42.8702 12.3077 32ZM31.1107 26.4239C31.1107 23.8356 29.0125 21.7372 26.4239 21.7372C23.8356 21.7372 21.7372 23.8356 21.7372 26.4239C21.7372 29.0123 23.8356 31.1107 26.4239 31.1107C29.0123 31.1107 31.1107 29.0123 31.1107 26.4239ZM31.1107 37.5761C31.1107 40.1646 29.0123 42.2628 26.4239 42.2628C23.8356 42.2628 21.7372 40.1644 21.7372 37.5761C21.7372 34.9877 23.8356 32.8893 26.4239 32.8893C29.9943 32.8893 32.8889 29.9945 32.8889 26.4243C32.8889 23.8358 34.9873 21.7376 37.5757 21.7376C40.164 21.7376 42.2624 23.836 42.2624 26.4243C42.2624 29.0127 40.164 31.1111 37.5757 31.1111C34.0055 31.1111 31.1111 34.0055 31.1111 37.5761H31.1107ZM32.8889 37.5761C32.8889 40.1644 34.9871 42.2628 37.5757 42.2628H37.5761C40.1644 42.2628 42.2625 40.1644 42.2625 37.5761C42.2625 34.9877 40.164 32.8893 37.5757 32.8893C34.9873 32.8893 32.8889 34.9877 32.8889 37.5761Z" fill="url(#paint0_linear_1_1292)"/>
<path fill-rule="evenodd" clip-rule="evenodd" d="M37.5761 27.8369C38.3564 27.8369 38.989 27.2043 38.989 26.4239C38.989 25.6436 38.3564 25.011 37.5761 25.011C36.7957 25.011 36.1631 25.6436 36.1631 26.4239C36.1631 27.2043 36.7957 27.8369 37.5761 27.8369Z" fill="#A566EB"/>
<path fill-rule="evenodd" clip-rule="evenodd" d="M26.4239 27.8369C27.2043 27.8369 27.8368 27.2043 27.8368 26.4239C27.8368 25.6436 27.2043 25.011 26.4239 25.011C25.6436 25.011 25.011 25.6436 25.011 26.4239C25.011 27.2043 25.6436 27.8369 26.4239 27.8369Z" fill="#A566EB"/>
<defs>
<linearGradient id="paint0_linear_1_1292" x1="27.3897" y1="8.2363" x2="8.28652" y2="36.6145" gradientUnits="userSpaceOnUse">
<stop stop-color="#C764F5"/>
<stop offset="1" stop-color="#7C6CDF"/>
</linearGradient>
</defs>
</svg>
